<svg id="eYFTVXGZJ8j1" xmlns="http://www.w3.org/2000/svg" xmlns:xlink="http://www.w3.org/1999/xlink" viewBox="0 0 256 256" shape-rendering="geometricPrecision" text-rendering="geometricPrecision" project-id="f18cb591efdf4a32a9b6e93a13e553fb" export-id="1de281af798342539f7af3045002d21c" cached="false"><defs><linearGradient id="eYFTVXGZJ8j3-fill" x1="0" y1="0.5" x2="1" y2="0.5" spreadMethod="pad" gradientUnits="objectBoundingBox" gradientTransform="translate(0 0)"><stop id="eYFTVXGZJ8j3-fill-0" offset="28%" stop-color="rgba(0,0,0,0.83)"/><stop id="eYFTVXGZJ8j3-fill-1" offset="100%" stop-color="rgba(255,255,255,0)"/></linearGradient></defs><g transform="matrix(.7 0 0 0.7 38.400001 38.4)"><rect width="46" height="46" rx="0" ry="0" transform="matrix(2.383507 2 -3.4 0 206.2 176.537528)" fill="url(#eYFTVXGZJ8j3-fill)" fill-opacity="0.85"/><rect width="46" height="46" rx="0" ry="0" transform="matrix(3.2 0 0 3.2 54.4 54.4)" fill="rgba(0,0,0,0)" stroke="#df0000" stroke-width="0.4"/><rect width="46" height="46" rx="0" ry="0" transform="matrix(1.7 -.618749 0 2 128 113)" fill="#222"/><rect width="46" height="46" rx="0" ry="0" transform="matrix(-1.7 -.618749 0 2 128 113)" fill="#555"/><rect width="46" height="46" rx="0" ry="0" transform="matrix(-1.69295 -.613817 1.7 -.618749 128 113)" fill="#aaa"/></g></svg>
